# xmcd
#
# Track frame offsets: 
#        150
#        28501
#        59751
#        85742
#        113736
#        141354
#        162723
#        192798
#        219529
#        248761
#        279470
#        306412
#        348328
#
# Disc length: 4772 seconds
#
# Revision: 0
# Processed by: cddbd v1.5.2PL0 Copyright (c) Steve Scherf et al.
# Submitted via: ExactAudioCopy v1.0b3
#
DISCID=c412a20d
DTITLE=Various Artist - White Party USA Vol. 4 - CD 2
DYEAR=1900
DGENRE=
TTITLE0=Ian Carey Project - Get Shaky (Stonebridge Mix)
TTITLE1=Gold, Diaz and Young Rebels - Open Sesame (Thomas Gold and Frances
TTITLE1=co Diaz Remix)
TTITLE2=Nic Corline - Orfeu  (Andy F. Mix)
TTITLE3=Raw Deal Feat. Toni Ann Bardell - He Gives Moore (Raw Deal Ant
TTITLE3=hem Vocal Edit)
TTITLE4=DJ Logo - Generate Power (Club Mix)
TTITLE5=D.O.N.S. and DBN Feat. Kadoc - The Nighttrain (Jerry Ropero Remi
TTITLE5=x Edit)
TTITLE6=Sebastian Gnewkow - Disco Inferno (Young Rebels and FD's Club Mi
TTITLE6=x)
TTITLE7=Manuel Baccano Feat. Stevie T. - The Great Commandment (Niels 
TTITLE7=Van Gogh Remix)
TTITLE8=Antoine Clamaran Vs. Philippe B. - In My House (Antoine Clamar
TTITLE8=an Mix)
TTITLE9=Ernest Kohl - Say Adieu (Keith and Carnaby Banger Club Mix)
TTITLE10=Randy Jones - New York City Boy (FC Nond Remix)
TTITLE11=Scotty - Keep On Jumpin' (Stefano Prada Maintime Remix)
TTITLE12=The Dazzle Dancers Vs. I Like It Electric - The Love Boat
EXTD=
EXTT0=
EXTT1=
EXTT2=
EXTT3=
EXTT4=
EXTT5=
EXTT6=
EXTT7=
EXTT8=
EXTT9=
EXTT10=
EXTT11=
EXTT12=
PLAYORDER=
